<?xml version="1.0" standalone="no"?>
<!DOCTYPE svg PUBLIC "-//W3C//DTD SVG 20010904//EN"
 "http://www.w3.org/TR/2001/REC-SVG-20010904/DTD/svg10.dtd">
<svg version="1.0" xmlns="http://www.w3.org/2000/svg"
 width="256.000000pt" height="256.000000pt" viewBox="0 0 256.000000 256.000000"
 preserveAspectRatio="xMidYMid meet">

<g transform="translate(0.000000,256.000000) scale(0.100000,-0.100000)"
fill="#000000" stroke="none">
<path d="M80 1285 l0 -1215 1200 0 1200 0 0 1215 0 1215 -1200 0 -1200 0 0
-1215z m500 1041 c0 -21 -5 -25 -37 -28 l-38 -3 0 -95 c0 -71 3 -94 13 -93 6
2 12 -2 12 -7 0 -5 9 -10 20 -10 11 0 20 7 20 15 0 8 5 15 10 15 17 0 11 -52
-7 -66 -10 -7 -33 -14 -50 -14 -27 0 -33 4 -33 20 0 11 -7 23 -15 26 -12 5
-15 27 -15 110 l0 104 -45 0 -45 0 0 -116 c0 -126 -7 -144 -54 -144 -19 0 -26
5 -26 20 0 11 5 20 10 20 6 0 10 7 10 15 0 8 5 15 10 15 6 0 10 38 10 95 l0
95 -30 0 c-20 0 -30 -5 -30 -15 0 -8 -7 -15 -15 -15 -24 0 -19 47 6 53 12 3
18 10 14 16 -4 8 42 11 149 11 l156 0 0 -24z m400 -21 l0 -45 50 0 c44 0 50
-3 50 -21 0 -18 -5 -20 -47 -17 l-48 3 -3 -42 c-2 -24 -7 -43 -13 -43 -10 0
-11 7 -13 55 -1 29 -3 30 -49 28 -41 -2 -47 0 -47 17 0 16 8 19 47 22 46 3 47
4 48 38 2 47 3 50 15 50 6 0 10 -20 10 -45z m820 30 c0 -11 -12 -15 -50 -15
-47 0 -50 -2 -50 -25 0 -14 -4 -25 -9 -25 -5 0 -11 -17 -15 -39 -3 -21 -13
-51 -21 -67 -8 -16 -15 -35 -15 -41 0 -7 -4 -13 -9 -13 -5 0 -13 -9 -16 -20
-3 -11 -15 -20 -26 -20 -12 0 -19 7 -19 20 0 11 -4 20 -10 20 -5 0 -10 7 -10
15 0 8 -4 15 -10 15 -5 0 -10 7 -10 15 0 8 -4 15 -10 15 -5 0 -10 7 -10 15 0
9 -7 18 -15 21 -8 4 -15 15 -15 25 0 10 7 19 15 19 8 0 15 -6 15 -12 0 -7 12
-24 25 -37 14 -13 25 -29 25 -36 0 -7 6 -18 14 -24 12 -10 17 -8 25 8 6 11 11
29 11 40 0 12 5 21 10 21 6 0 10 5 10 11 0 7 10 38 23 70 l22 59 63 0 c48 0
62 -3 62 -15z m460 -40 c0 -8 7 -15 15 -15 11 0 15 -12 15 -45 0 -33 -4 -45
-15 -45 -9 0 -15 -9 -15 -25 0 -16 6 -25 15 -25 12 0 15 -13 15 -55 0 -49 -2
-55 -21 -55 -11 0 -17 -4 -14 -10 4 -6 -20 -10 -64 -10 -41 0 -71 4 -71 10 0
6 -7 10 -15 10 -9 0 -15 9 -15 25 0 20 5 25 25 25 15 0 24 -5 23 -12 -2 -9 14
-14 50 -16 l52 -3 0 45 c0 44 -1 46 -30 46 -23 0 -30 5 -30 19 0 14 8 21 28
23 24 3 27 7 30 46 l3 42 -50 0 c-39 0 -51 -4 -51 -15 0 -9 -9 -15 -25 -15
-18 0 -25 5 -25 20 0 11 7 20 15 20 8 0 15 7 15 15 0 12 14 15 70 15 56 0 70
-3 70 -15z m-340 -456 c0 -10 7 -19 15 -19 11 0 15 -11 15 -40 0 -33 -4 -40
-19 -40 -10 0 -21 7 -25 15 -3 8 -12 15 -20 15 -10 0 -13 6 -10 15 4 10 0 15
-15 15 -17 0 -21 6 -21 33 0 32 1 32 40 29 31 -3 40 -8 40 -23z m222 -49 l3
-65 38 -3 c28 -2 37 0 37 12 0 12 10 16 35 16 28 0 35 -4 35 -20 0 -11 -7 -20
-15 -20 -8 0 -15 -7 -15 -15 0 -8 -9 -15 -20 -15 -15 0 -20 -7 -20 -29 0 -24
3 -28 20 -24 14 4 20 0 20 -11 0 -11 9 -16 30 -16 23 0 30 -4 30 -20 0 -16 -7
-20 -32 -21 -18 -1 -36 -1 -40 0 -5 0 -8 -10 -8 -24 0 -20 -5 -25 -25 -25 -18
0 -25 -5 -25 -20 0 -11 5 -20 10 -20 6 0 10 -9 10 -20 0 -13 7 -20 20 -20 16
0 20 -7 20 -31 0 -30 -2 -31 -31 -25 -17 3 -42 6 -55 6 -15 0 -24 6 -24 15 0
10 -10 15 -30 15 -23 0 -30 4 -30 20 0 15 -7 20 -25 20 -19 0 -25 5 -25 23 1
16 24 39 88 87 l87 65 -45 6 c-25 3 -75 10 -112 13 -63 7 -68 9 -68 32 0 14 6
24 14 24 8 0 16 10 18 23 2 12 10 22 18 22 10 0 14 8 12 23 -2 17 2 22 17 22
14 0 21 6 21 20 0 11 5 20 10 20 6 0 10 6 10 14 0 14 32 28 37 16 1 -3 4 -34
5 -70z m-1615 26 c0 -8 -11 -17 -24 -21 -14 -3 -23 -13 -23 -25 0 -11 -4 -20
-10 -20 -5 0 -10 -9 -10 -20 0 -14 -7 -20 -21 -20 -14 0 -19 -5 -16 -14 4 -9
-2 -16 -15 -19 -13 -4 -19 -11 -15 -21 4 -10 -1 -16 -16 -18 -12 -2 -22 -9
-22 -17 0 -8 -10 -15 -22 -16 -20 -1 -23 3 -23 32 0 26 4 33 20 33 13 0 20 7
20 20 0 15 7 20 25 20 18 0 25 5 25 20 0 13 7 20 20 20 13 0 20 7 20 20 0 13
7 20 20 20 13 0 20 7 20 20 0 14 7 20 23 20 14 0 24 -6 24 -14z m763 -141 c0
-58 2 -65 20 -65 16 0 20 -7 20 -35 0 -31 -3 -35 -25 -35 -24 0 -25 -3 -25
-60 l0 -60 -45 0 c-39 0 -45 -3 -45 -21 0 -20 -4 -20 -115 -17 -101 3 -115 5
-115 21 0 9 -7 17 -15 17 -12 0 -15 14 -15 65 l0 65 -35 0 c-28 0 -35 4 -35
20 0 13 -7 20 -19 20 -14 0 -20 10 -24 42 -7 52 -3 58 35 58 21 0 31 -6 35
-20 3 -11 11 -20 19 -20 7 0 14 -12 16 -27 3 -24 8 -28 41 -31 l37 -3 0 70 c0
58 3 70 18 74 9 3 74 5 145 6 l127 1 0 -65z m542 -107 c3 -29 7 -60 9 -68 6
-23 -109 -49 -218 -49 -76 -1 -93 -4 -93 -16 0 -11 -11 -15 -41 -15 -31 0 -42
-4 -46 -19 -5 -20 -116 -55 -208 -64 l-50 -6 54 14 c29 7 57 17 61 22 4 4 15
33 24 64 l15 55 233 66 c128 36 238 66 244 67 7 1 14 -21 16 -51z m188 32 c33
-8 34 -8 6 -9 -26 -1 -28 -4 -23 -29 5 -25 0 -33 -44 -66 -28 -21 -52 -36 -53
-34 -10 12 -36 107 -36 131 l0 29 58 -7 c31 -3 73 -10 92 -15z m-370 -239 c0
-30 -4 -40 -20 -44 -12 -3 -20 -14 -20 -26 0 -18 -6 -21 -40 -21 -36 0 -40 -2
-40 -25 0 -18 -5 -25 -20 -25 -13 0 -20 -7 -20 -20 0 -13 -7 -20 -20 -20 -13
0 -20 -7 -20 -19 0 -21 -36 -31 -110 -28 -36 2 -45 5 -44 20 2 16 -13 22 -43
18 -8 -1 -13 10 -13 29 0 27 3 30 30 30 17 0 30 -4 30 -10 0 -19 55 -11 68 10
7 11 23 20 37 20 13 0 28 6 32 14 4 8 17 15 28 18 16 3 20 11 19 46 l-1 42 39
0 c25 0 41 5 44 15 4 10 20 15 45 15 39 0 39 0 39 -39z m398 -107 c-3 -26 -31
-50 -48 -39 -6 3 -10 19 -10 36 0 26 3 29 30 29 26 0 29 -3 28 -26z m-1468
-35 c0 -34 3 -40 16 -35 11 4 18 -1 21 -14 3 -11 14 -20 25 -20 17 0 19 -6 16
-47 l-3 -48 -57 -3 c-53 -3 -58 -1 -58 18 0 11 -7 20 -15 20 -12 0 -15 13 -15
55 0 42 3 55 15 55 10 0 15 10 15 30 0 23 4 30 20 30 17 0 20 -7 20 -41z
m1560 -71 l0 -28 -120 0 -120 0 0 28 0 27 120 0 120 0 0 -27z m-823 -44 c-3
-3 -12 -4 -19 -1 -8 3 -5 6 6 6 11 1 17 -2 13 -5z m56 -1 c-7 -2 -21 -2 -30 0
-10 3 -4 5 12 5 17 0 24 -2 18 -5z m675 -40 c2 -13 -1 -24 -7 -24 -42 -5 -46
-3 -49 24 -3 26 -1 28 25 25 20 -2 29 -9 31 -25z m-1540 -136 l32 -33 -6 -204
c-8 -270 0 -259 -176 -259 l-128 -1 0 265 0 265 123 0 123 0 32 -33z m344 6
l28 -27 0 -210 c-1 -209 -1 -211 -25 -238 -23 -27 -28 -28 -116 -28 -87 0 -95
2 -121 27 l-28 27 0 210 0 210 27 28 c25 27 31 28 117 28 84 0 92 -2 118 -27z
m351 -1 l27 -28 0 -208 0 -208 -29 -29 c-28 -28 -33 -29 -122 -29 -85 0 -93 2
-115 26 -24 25 -24 28 -24 237 0 205 1 213 23 239 21 27 26 28 118 28 91 0 96
-1 122 -28z m176 -52 c35 -81 49 -96 58 -60 3 11 8 20 12 20 3 0 17 27 30 60
l24 60 54 0 53 0 0 -265 0 -265 -50 0 -50 0 0 152 c0 145 -1 150 -17 130 -10
-11 -26 -34 -35 -51 -19 -35 -44 -40 -52 -13 -4 10 -17 34 -31 52 l-25 34 0
-152 0 -152 -40 0 -40 0 0 265 0 265 38 0 c37 0 37 0 71 -80z m553 53 c24 -25
27 -39 33 -130 4 -57 11 -103 16 -103 5 0 9 -31 9 -70 0 -40 4 -70 10 -70 6 0
10 -20 10 -45 0 -25 5 -45 10 -45 6 0 10 -9 10 -20 0 -18 -7 -20 -59 -20 l-59
0 -7 85 -7 85 -69 0 -69 0 0 -85 0 -85 -59 0 -60 0 6 73 c3 39 9 74 13 77 4 3
10 59 14 125 4 66 12 122 17 123 5 2 9 21 9 41 0 24 8 49 21 65 19 24 26 26
103 26 77 0 84 -2 108 -27z m408 -28 l0 -55 -60 0 -60 0 0 -210 0 -210 -50 0
-50 0 -2 208 -3 207 -57 3 -58 3 0 54 0 55 170 0 170 0 0 -55z"/>
<path d="M1120 1680 c0 -13 7 -20 20 -20 16 0 20 -7 20 -35 0 -33 2 -35 35
-35 34 0 35 1 35 40 0 29 -4 40 -15 40 -8 0 -15 7 -15 15 0 11 -11 15 -40 15
-33 0 -40 -3 -40 -20z"/>
<path d="M334 837 c-2 -7 -3 -78 -2 -157 l3 -145 38 -3 c61 -5 67 8 67 156 0
72 -3 137 -6 146 -8 20 -92 23 -100 3z"/>
<path d="M690 690 l0 -160 45 0 45 0 0 160 0 160 -45 0 -45 0 0 -160z"/>
<path d="M1034 837 c-2 -7 -3 -78 -2 -157 l3 -145 43 -3 42 -3 0 160 0 161
-40 0 c-24 0 -43 -5 -46 -13z"/>
<path d="M1796 818 c-3 -18 -7 -55 -8 -82 l-3 -49 43 1 c23 0 47 1 52 1 6 1
10 10 10 21 0 11 -4 20 -10 20 -5 0 -10 13 -10 29 0 16 -3 43 -6 60 -5 26 -11
31 -35 31 -24 0 -29 -5 -33 -32z"/>
</g>
</svg>
